# xmcd
#
# Track frame offsets: 
#        183
#        17208
#        34683
#        49733
#        75608
#        87633
#        101620
#        120683
#        135033
#        151383
#        175583
#        193033
#        209883
#
# Disc length: 3039 seconds
#
# Revision: 2
# Processed by: cddbd v1.5.2PL0 Copyright (c) Steve Scherf et al.
# Submitted via: ExactAudioCopyFreeDBPlugin 1.0
#
DISCID=a90bdd0d
DTITLE=Mick Clarke - Looking For Trouble
DYEAR=1984
DGENRE=Blues
TTITLE0=You Need Love
TTITLE1=Little Rachel
TTITLE2=Looking For Trouble
TTITLE3=I´m In The Mood
TTITLE4=Honky Tonkin
TTITLE5=The Full Moon Boogie
TTITLE6=Careless Love
TTITLE7=Sidekick
TTITLE8=As Long As I Have You
TTITLE9=It Hurts Me Too
TTITLE10=Gone Too Long
TTITLE11=Devil On The Road
TTITLE12=File Me
EXTD=
EXTT0=
EXTT1=
EXTT2=
EXTT3=
EXTT4=
EXTT5=
EXTT6=
EXTT7=
EXTT8=
EXTT9=
EXTT10=
EXTT11=
EXTT12=
PLAYORDER=
